<?xml version="1.0" standalone="no"?><!DOCTYPE svg PUBLIC "-//W3C//DTD SVG 1.1//EN" "http://www.w3.org/Graphics/SVG/1.1/DTD/svg11.dtd"><svg t="1533278574472" class="icon" style="" viewBox="0 0 1024 1024" version="1.1" xmlns="http://www.w3.org/2000/svg" p-id="2851" xmlns:xlink="http://www.w3.org/1999/xlink" width="200" height="200"><defs><style type="text/css"></style></defs><path d="M767.5 959.8h-511c-61.9 0-111.8-49.9-111.8-111.8V488c0-61.9 49.9-111.8 111.8-111.8h511.1c61.9 0 111.8 49.9 111.8 111.8v360c-0.1 61.9-50 111.8-111.9 111.8zM509.3 556.6c-39.3 0-70.5 31.9-70.5 71.2 0 20 8.6 37.9 22 51.2v79.9c0 27.3 22 49.9 49.9 49.9 27.3 0 49.9-22 49.9-49.9v-81.2c12.6-12.6 20.6-30.6 20.6-49.9-1.3-39.3-33.3-71.2-71.9-71.2zM522 168c-84.5 0-154.4 63.9-165 147.1H253.1C265.1 174.6 379.6 64.2 520 64.2c140.4 0 254.9 110.5 266.8 250.9H687C676.4 231.8 606.5 168 522 168z m0 0" p-id="2852" fill="#f5f5f5"></path></svg>