<?xml version="1.0" standalone="no"?><!DOCTYPE svg PUBLIC "-//W3C//DTD SVG 1.1//EN" "http://www.w3.org/Graphics/SVG/1.1/DTD/svg11.dtd"><svg t="1533273262088" class="icon" style="" viewBox="0 0 1024 1024" version="1.1" xmlns="http://www.w3.org/2000/svg" p-id="3077" xmlns:xlink="http://www.w3.org/1999/xlink" width="200" height="200"><defs><style type="text/css"></style></defs><path d="M511.168026 0.031999l-431.154526 135.323771 2.23993 510.768038 1.183963 10.047686c3.263898 15.231524 23.551264 95.197025 101.564826 170.938658 61.854067 60.254117 202.489672 133.43583 270.135558 168.538733l7.551764 3.935877 45.662573 24.383238 34.366926-17.567451c36.510859-17.631449 222.489047-109.11659 294.550795-179.226399 79.517515-77.373582 98.684916-156.699103 102.428799-178.394425l2.591919-513.391957-431.154526-135.387769zM726.745289 538.959158l-161.690947 0 0 161.690947-107.772632 0 0-161.690947-161.690947 0 0-107.772632 161.690947 0 0-161.690947 107.772632 0 0 161.690947 161.690947 0 0 107.772632z" p-id="3078" fill="#8a8a8a"></path></svg>