<?xml version="1.0" standalone="no"?><!DOCTYPE svg PUBLIC "-//W3C//DTD SVG 1.1//EN" "http://www.w3.org/Graphics/SVG/1.1/DTD/svg11.dtd"><svg t="1533376922039" class="icon" style="" viewBox="0 0 1024 1024" version="1.1" xmlns="http://www.w3.org/2000/svg" p-id="4039" xmlns:xlink="http://www.w3.org/1999/xlink" width="200" height="200"><defs><style type="text/css"></style></defs><path d="M626.364 513.31a45.545 45.517 0 1 0 91.09 0 45.545 45.517 0 1 0-91.09 0Z" fill="#f5f5f5" p-id="4040"></path><path d="M610.138 540.272l-13.93-75.093-36.183-73.45s-5.968-21.245-37.407-28.401c-20.96-4.77-50.133-7.88-87.52-9.328-13.786 2.304-20.68 10.12-20.68 23.45 0 13.328 6.894 22.442 20.68 27.341 49.759 1.303 76.176 4.769 79.252 10.397 4.613 8.442 20.476 46.735 8.268 53.27-12.208 6.536-83.54 44.97-92.875 48.28-9.336 3.31-53.88 29.323-53.88 29.323s22.105 28.422 53.88 35.967c31.775 7.546 49.614 5.041 66.908-4.318 17.293-9.36 26.035-20.403 49.08-31.649 15.363-7.497 36.832-9.427 64.407-5.789z" fill="#f5f5f5" p-id="4041"></path><path d="M267.165 597.187c9.44-15.12 22.179-23.697 38.217-25.732 24.057-3.052 37.293-0.475 54.133 7.394 16.84 7.869 54.148 34.13 70.968 39.452 16.82 5.322 29.023 9.57 47.49 0 18.467-9.57 65.19-43.85 90.337-43.85 25.145 0 37.638 2.899 57.24 18.041 19.603 15.143 57.396 32.642 74.567 32.642 17.171 0 30.551-16.905 44.51-16.905 13.958 0 24.036 31.626 7.754 48.397-16.283 16.77-36.068 20.82-57.386 20.82-21.318 0-48.124-11.05-59.968-23.855-11.844-12.806-51.582-45.362-94.373-15.686-42.792 29.677-62.475 39.54-90.498 39.54-28.023 0-53.693-20.82-69.316-29.565-15.624-8.745-36.48-29.579-60.795-22.746-4.841 1.36-13.435 10.712-18.936 12.771-6.48 2.425-29.81 9.975-36.348-3.281-4.358-8.838-3.557-21.317 2.404-37.437z" fill="#f5f5f5" p-id="4042"></path></svg>