<?xml version="1.0" standalone="no"?><!DOCTYPE svg PUBLIC "-//W3C//DTD SVG 1.1//EN" "http://www.w3.org/Graphics/SVG/1.1/DTD/svg11.dtd"><svg t="1533354025380" class="icon" style="" viewBox="0 0 1024 1024" version="1.1" xmlns="http://www.w3.org/2000/svg" p-id="3613" xmlns:xlink="http://www.w3.org/1999/xlink" width="200" height="200"><defs><style type="text/css"></style></defs><path d="M692.576705 104.160291c-85.22094 0-149.290141 60.538795-186.835246 108.797915-37.514405-48.25912-101.583606-108.797915-186.804547-108.797915-109.012809 0-208.570269 75.120908-247.742431 186.896644-5.740748 16.393365 2.885723 34.32169 19.24839 40.062438 16.454764 5.863545 34.352389-2.916423 40.062438-19.24839 30.361495-86.633103 106.096387-144.838759 188.431603-144.838759 55.135738 0 114.937752 43.930535 160.004157 117.485785 5.710049 9.332553 15.871479 15.011902 26.800389 15.011902 10.92891 0 21.090341-5.679349 26.800389-15.011902 45.097104-73.55525 104.899118-117.485785 160.034856-117.485785 111.62224 0 202.430432 102.412484 202.430432 228.309846 0 67.13912-30.392194 130.164548-92.926436 192.69879-95.41307 95.41307-251.027244 236.567927-295.327192 265.640056-43.592844-29.102828-200.864774-169.121815-297.812803-266.069845-33.983999-33.983999-59.065234-70.14764-74.599022-107.508549-2.578732-6.231935-4.881171-12.43317-6.907317-18.603707-5.433756-16.516162-23.269983-25.511024-39.694047-20.046568-16.485463 5.433756-25.449625 23.208585-20.046568 39.694047 2.517333 7.644097 5.372358 15.318894 8.565073 23.055089 18.726503 45.035706 48.412616 88.045265 88.22946 127.862109 2.885723 2.885723 291.826462 287.774169 342.051353 287.774169 51.206242 0 337.108784-284.458657 339.994508-287.344381 73.892941-73.892941 111.345947-153.680125 111.345947-237.151211C957.87907 234.785328 838.858326 104.160291 692.576705 104.160291z" p-id="3614" fill="#696969"></path></svg>