<?xml version="1.0" standalone="no"?><!DOCTYPE svg PUBLIC "-//W3C//DTD SVG 1.1//EN" "http://www.w3.org/Graphics/SVG/1.1/DTD/svg11.dtd"><svg t="1533092093335" class="icon" style="" viewBox="0 0 1024 1024" version="1.1" xmlns="http://www.w3.org/2000/svg" p-id="2483" xmlns:xlink="http://www.w3.org/1999/xlink" width="200" height="200"><defs><style type="text/css"></style></defs><path d="M985.47288 614.478228c-27.18411-21.121467-8.99618-63.168831-45.176471-78.227655-39.113827-39.113827-102.282659-21.121467-147.654698-15.058824A866.371276 866.371276 0 0 1 680.971734 567.150497c-12.125286-8.99618-8.99618-30.117647-2.933537-42.242934 12.125286-54.172651 60.235294-90.352941 57.301757-150.588235-17.992361-24.055004-51.239114-15.058824-72.36058-33.051184 21.121467-54.172651 60.235294-108.345302 69.231474-171.709702-36.18029-42.242934-75.294118 6.062643-111.474408 8.99618-24.055004-15.058824 8.99618-21.121467 0-39.113828-33.051184-33.051184 15.058824-60.235294 0-96.415584 0-36.18029-42.047364-39.113827-69.231474-42.242933-29.922078 17.210084-66.102368 23.272727-87.028266 56.51948C458.414057 93.286478 407.174943 114.407945 404.241406 156.455309c-96.415584 84.290298-108.345302 213.952636-189.702063 310.36822-72.360581-12.125286-108.540871 69.231474-159.388846 108.345302-33.442322 6.062643-12.320856 42.242934-18.383499 70.20932a231.944996 231.944996 0 0 0 78.227654 36.180291c12.125286 24.055004-12.125286 48.305577-8.99618 78.227654C75.880825 819.239114 36.766998 880.061115 48.696715 951.834989c66.297937 60.235294 60.235294-60.235294 105.411765-81.356761 12.125286 8.99618 6.062643 30.117647 2.933537 39.113827 33.246753 36.18029-23.663866 81.356761 21.317036 114.407945 12.125286-6.062643 26.988541-2.933537 39.113827-8.99618l6.062643-134.942705c0-84.290298 27.18411-162.713522 0-240.941176 6.062643-8.99618 8.99618 6.062643 18.18793 6.062643 17.992361-60.235294 45.176471-114.407945 48.110008-177.576776 8.99618-63.3644 51.239114-117.341482 66.297937-177.772345 8.800611-48.892284 57.106188-85.072574 51.043545-133.378152 39.113827 15.058824 0-30.117647 27.18411-42.047364 35.984721-30.117647 60.235294-75.294118 105.411764-93.286478 57.301757 54.172651 17.992361 135.529412 2.933537 198.893812 12.125286 17.992361 45.176471-3.129106 63.168832 2.933537 21.121467-6.062643 45.176471-36.18029 69.231474-21.121467-12.125286 54.172651-57.301757 93.482047-87.419404 135.529412-30.117647 21.121467-42.242934 69.231474-87.419404 72.165011-6.062643 21.121467-21.121467 39.113827-15.058824 66.297938 30.117647 45.176471 72.360581-8.99618 102.478228 8.99618-17.992361 75.294118-66.297937 138.658518-93.286478 207.889992-17.992361 63.168831-93.286478 129.466769-33.051184 189.702063 17.992361 6.062643 39.113827 21.121467 60.235294 8.99618 17.992361 2.933537 24.055004-36.18029 39.113827-6.062643 21.121467 6.062643 15.058824 36.18029 12.125287 51.239114 30.117647 0 57.301757 39.113827 78.227654 27.18411 57.106188 30.117647 129.466769 6.062643 186.768526 8.99618a34.420168 34.420168 0 0 0 17.99236-36.18029A247.394958 247.394958 0 0 0 954.768526 801.833461c36.18029-51.239114 36.18029-126.533231 30.117647-186.768526zM229.402597 557.176471c-8.99618-2.933537 2.933537-12.125286 2.933537-18.18793 8.99618 2.933537-2.933537 12.125286-2.933537 18.18793z m415.584416 180.705882l-69.231474 51.239114c-2.933537-42.242934 42.242934-85.072574 81.35676-104.629488 12.125286 0 17.992361 8.99618 21.121467 21.121466a30.117647 30.117647 0 0 1-33.051184 33.051184z m87.223835 183.639419c-15.058824 0-24.055004-12.125286-39.113827-6.062643 21.121467-57.301757 105.411765-90.352941 93.286478-159.584415-8.99618-45.176471 24.055004-111.474408-39.113827-126.533232l-12.125287-12.125286c17.992361-30.117647 66.297937-12.125286 84.290298-45.176471 17.992361-4.889228 36.571429-4.889228 48.501146-26.988541a129.07563 129.07563 0 0 1 60.235294 93.482047 400.330023 400.330023 0 0 1-195.569137 283.18411zM136.116119 238.007639A64.146677 64.146677 0 0 0 193.417876 234.682964c6.062643 42.047364 39.113827 8.99618 57.106188 2.933537a79.792208 79.792208 0 0 0 12.125287-69.231474c-17.992361-17.992361-54.172651 0-63.168832-26.988541-12.125286-20.925898-26.988541 9.191749-42.242933-2.933537-17.992361 63.168831-42.047364-8.99618-75.294118 0-6.062643 15.058824 6.062643 24.055004 6.062644 39.113827 12.125286 17.992361 33.246753 39.113827 48.110007 60.235294z" fill="#f4ea2a" p-id="2484"></path><path d="M214.343774 997.402597l-2.737968 2.542399v-12.125286c2.933537 0 2.933537 6.062643 2.933537 8.99618z" fill="#f4ea2a" p-id="2485"></path></svg>