<?xml version="1.0" standalone="no"?><!DOCTYPE svg PUBLIC "-//W3C//DTD SVG 1.1//EN" "http://www.w3.org/Graphics/SVG/1.1/DTD/svg11.dtd"><svg t="1533278666455" class="icon" style="" viewBox="0 0 1024 1024" version="1.1" xmlns="http://www.w3.org/2000/svg" p-id="3490" xmlns:xlink="http://www.w3.org/1999/xlink" width="200" height="200"><defs><style type="text/css"></style></defs><path d="M951.983803 598.591147 763.556293 308.256666 763.556293 183.175903c0-21.148669-17.141402-38.296211-38.296211-38.296211L298.3132 144.879692c-21.154809 0-38.296211 17.147542-38.296211 38.296211l0 125.080763L69.438489 601.87596c-5.990434 9.231245-7.424086 20.450774-4.53734 30.810726 19.160385 140.931776 209.340819 246.433622 446.462355 246.433622 233.456053 0 421.423075-102.267175 445.458491-239.920278 2.381234-4.986571 3.714602-10.577916 3.714602-16.474206C960.535573 613.57542 957.332624 605.179193 951.983803 598.591147zM511.36248 802.526863c-187.019441 0-348.121606-76.194356-369.139292-172.10373l188.216709-289.978371c4.02671-6.208399 6.170536-13.45136 6.170536-20.849864l0-98.121761 350.353436 0 0 98.121761c0 7.398504 2.143826 14.641465 6.170536 20.849864l187.580213 289.036929C860.544231 725.821877 699.005115 802.526863 511.36248 802.526863z" p-id="3491" fill="#f5f5f5"></path><path d="M613.985766 289.01544 409.562956 289.01544c-17.627473 0-31.91385 14.286378-31.91385 31.91385s14.286378 31.91385 31.91385 31.91385l204.422809 0c17.627473 0 31.91385-14.286378 31.91385-31.91385S631.612215 289.01544 613.985766 289.01544z" p-id="3492" fill="#f5f5f5"></path></svg>