<?xml version="1.0" standalone="no"?><!DOCTYPE svg PUBLIC "-//W3C//DTD SVG 1.1//EN" "http://www.w3.org/Graphics/SVG/1.1/DTD/svg11.dtd"><svg t="1533212383209" class="icon" style="" viewBox="0 0 1024 1024" version="1.1" xmlns="http://www.w3.org/2000/svg" p-id="1700" xmlns:xlink="http://www.w3.org/1999/xlink" width="200" height="200"><defs><style type="text/css"></style></defs><path d="M363.6 729.6c-57.6 0-104.5-46.9-104.5-104.5S306 520.6 363.6 520.6s104.5 46.9 104.5 104.5c0 57.7-46.9 104.5-104.5 104.5z m0-158.9c-30 0-54.5 24.4-54.5 54.5 0 30 24.4 54.5 54.5 54.5s54.5-24.4 54.5-54.5-24.5-54.5-54.5-54.5z" fill="#f5f5f5" p-id="1701"></path><path d="M363.6 873.7c-66.4 0-128.8-25.9-175.8-72.8-46.6-46.7-72.8-109.8-72.8-175.8 0-66.4 25.9-128.8 72.8-175.8 46.9-46.9 109.4-72.8 175.8-72.8 6.3 0 12.8 0.3 19.3 0.8h482c27.4 0 49.6 22 50 49.3l1.3 93.3c0.4 27.9-22.1 50.7-50 50.7H635.6c-14.9 0-26.4 13-24.8 27.8 0.9 8.2 1.3 16.5 1.4 24.8 0.5 65.9-25.3 129.5-71.6 176.4-47.1 47.8-110 74.1-177 74.1z m0-447.1c-109.7 0-198.8 89.3-198.6 199.1 0.3 108.9 89.2 197.8 198.1 198.1 109.7 0.3 199.1-88.9 199.1-198.6 0-24.3-4.3-48-12.9-70.6-6.2-16.4 5.9-33.9 23.4-33.9h268.2c13.9 0 25.2-11.4 25-25.3l-0.6-43.3c-0.2-13.7-11.3-24.7-25-24.7H380.9l-1-0.1c-5.5-0.5-11-0.7-16.3-0.7z" fill="#f5f5f5" p-id="1702"></path><path d="M497.2 476.6h-20c-8.3 0-15-6.7-15-15v-35h50v35c0 8.3-6.7 15-15 15zM487.2 247.3c-13.8 0-25-11.2-25-25v-100c0-13.8 11.2-25 25-25s25 11.2 25 25v100c0 13.8-11.2 25-25 25zM397.7 286.4c-9.8 9.8-25.6 9.8-35.4 0l-70.7-70.7c-9.8-9.8-9.8-25.6 0-35.4 9.8-9.8 25.6-9.8 35.4 0l70.7 70.7c9.7 9.8 9.7 25.6 0 35.4zM577.7 286.4c9.8 9.8 25.6 9.8 35.4 0l70.7-70.7c9.8-9.8 9.8-25.6 0-35.4-9.8-9.8-25.6-9.8-35.4 0L577.7 251c-9.8 9.8-9.8 25.6 0 35.4z" fill="#f5f5f5" p-id="1703"></path></svg>